<svg id="Layer_1" data-name="Layer 1" xmlns="http://www.w3.org/2000/svg" width="64" height="64" viewBox="0 0 64 64"><defs><style>.cls-1{fill:#666;}</style></defs><title>wrist_watch</title><path class="cls-1" d="M31,34h6a1,1,0,0,0,0-2H32V25a1,1,0,0,0-2,0v8A1,1,0,0,0,31,34Z"/><path class="cls-1" d="M25,62H37c2.08,0,3-.93,3-3V51.09L42,40a12.85,12.85,0,0,0,1.68-4H47a1,1,0,0,0,1-1V31a1,1,0,0,0-1-1H43.64A13,13,0,0,0,42,26L40,14.91V7c0-2.07-.92-3-3-3H25c-2,0-3,.95-3,3v7.91L20,26A12.93,12.93,0,0,0,20,40l2,11.12V59C22,61,23,62,25,62ZM23.84,16H38.16l1.25,7.1a13,13,0,0,0-16.82,0ZM38.16,50H23.84l-1.25-7.1a13,13,0,0,0,16.82,0ZM37,60H25c-0.94,0-1-.06-1-1V52H38v7C38,60,38,60,37,60Zm9-28v2H44c0-.33,0-0.66,0-1s0-.67,0-1h2ZM25,6H37c1,0,1,0,1,1v7H24V7C24,6.06,24.06,6,25,6Zm6,16A11,11,0,1,1,20,33,11,11,0,0,1,31,22Z"/></svg>