<svg id="Layer_1" data-name="Layer 1" xmlns="http://www.w3.org/2000/svg" width="64" height="64" viewBox="0 0 64 64"><defs><style>.cls-1{fill:#666;}</style></defs><title>calendar_time</title><path class="cls-1" d="M4,48a4,4,0,0,0,4,4H31a1,1,0,0,0,0-2H8a2,2,0,0,1-2-2V22H46v9a1,1,0,1,0,2,0V12a4,4,0,0,0-4-4H38V5a1,1,0,0,0-2,0V8H16V5a1,1,0,1,0-2,0V8H8a4,4,0,0,0-4,4V48ZM8,10h6v3a1,1,0,0,0,2,0V10H36v3a1,1,0,1,0,2,0V10h6a2,2,0,0,1,2,2v8H6V12A2,2,0,0,1,8,10Z"/><path class="cls-1" d="M27,44a1,1,0,0,0,1-1V29a1,1,0,0,0-.62-0.92,1,1,0,0,0-1.09.22l-2,2a1,1,0,1,0,1.41,1.41l0.3-.3V43A1,1,0,0,0,27,44Z"/><path class="cls-1" d="M47,34A13,13,0,1,0,60,47,13,13,0,0,0,47,34Zm0,24A11,11,0,1,1,58,47,11,11,0,0,1,47,58Z"/><path class="cls-1" d="M53,46H48V39a1,1,0,0,0-2,0v8a1,1,0,0,0,1,1h6A1,1,0,0,0,53,46Z"/></svg>