<?xml version="1.0" encoding="utf-8"?>
<!-- Generator: Adobe Illustrator 19.0.0, SVG Export Plug-In . SVG Version: 6.00 Build 0)  -->
<svg version="1.1" id="Layer_1" xmlns="http://www.w3.org/2000/svg" xmlns:xlink="http://www.w3.org/1999/xlink" x="0px" y="0px"
	 viewBox="-943 1235 32 32" style="enable-background:new -943 1235 32 32;" xml:space="preserve">
<style type="text/css">
	.st0{fill:#414752;}
</style>
<g id="OUTLINE_copy">
	<path id="Cat_4_" class="st0" d="M-924.5,1259.5h-2.3h-2.3c0,0,0-1.3,0-2.3c-3.1,0.7-4-1.7-4-1.7c-0.6-1.1-1.1-1.7-1.1-1.7
		c-1.1-0.7,0-0.6,0-0.6c1.1,0,1.7,1.1,1.7,1.1c1,1.7,2.8,1.4,3.4,1.1c0-0.6,0.2-1.4,0.6-1.7c-2.5-0.3-4.5-1.7-4.5-4.5
		c0-2.8,0.6-3.4,1.1-4c-0.1-0.3-0.6-1.3,0-2.8c0,0,1.1,0,2.2,1.7c0.6-0.6,2.3-0.6,2.8-0.6c0.6,0,2.3,0,2.8,0.6
		c1.1-1.7,2.2-1.7,2.2-1.7c0.6,1.5,0.1,2.6,0,2.8c0.6,0.6,1.1,1.1,1.1,4c0,2.8-2.1,4.3-4.5,4.5c0.3,0.3,0.6,1.3,0.6,1.7
		L-924.5,1259.5L-924.5,1259.5z"/>
	<g>
		<g id="Shopping_10_107_">
			<g>
				<g>
					<g>
						<g>
							<path class="st0" d="M-927,1236c8.3,0,15,6.7,15,15s-6.7,15-15,15s-15-6.7-15-15S-935.3,1236-927,1236 M-927,1235
								c-8.8,0-16,7.2-16,16s7.2,16,16,16s16-7.2,16-16S-918.2,1235-927,1235L-927,1235z"/>
						</g>
					</g>
				</g>
			</g>
		</g>
	</g>
</g>
</svg>
